<svg xmlns="http://www.w3.org/2000/svg" version="1.1" viewBox="0.00 0.00 1000.00 1000.00" width="1000.00" height="1000.00">
<g stroke-width="2.00" fill="none" stroke-linecap="butt">
<path stroke="#e1f3ff" d="&#10;  M 215.52 235.19&#10;  Q 205.17 242.41 194.62 244.36&#10;  Q 181.79 246.73 173.52 248.73&#10;  Q 159.88 252.02 148.95 262.60&#10;  C 139.48 271.77 132.27 280.67 127.40 292.92&#10;  Q 123.48 302.79 119.74 312.84"/>
<path stroke="#d7eaff" d="&#10;  M 348.97 348.15&#10;  C 342.13 352.96 334.88 357.26 326.58 357.92&#10;  Q 322.67 358.23 316.11 357.17&#10;  Q 309.29 356.07 305.75 355.31&#10;  Q 282.36 350.31 267.29 368.17&#10;  Q 258.43 378.67 257.63 379.55&#10;  C 251.34 386.50 244.94 388.97 235.70 389.76"/>
<path stroke="#01a3f8" d="&#10;  M 970.64 291.46&#10;  L 964.68 293.55&#10;  A 2.79 2.69 15.0 0 0 963.83 294.02&#10;  Q 962.55 295.02 961.13 296.38&#10;  Q 951.86 305.28 942.30 314.97&#10;  C 941.01 316.28 939.30 317.50 937.86 318.87&#10;  C 926.41 329.70 914.97 339.80 903.88 349.64&#10;  C 893.56 358.80 883.53 366.67 873.96 375.22&#10;  Q 867.03 381.41 857.74 388.44&#10;  Q 840.42 401.54 826.62 412.43&#10;  C 820.23 417.47 811.47 423.49 805.57 428.08&#10;  Q 790.39 439.86 788.29 441.29&#10;  C 771.87 452.47 757.36 463.06 739.40 474.97&#10;  C 728.60 482.14 710.87 494.40 696.73 503.45&#10;  Q 688.66 508.62 681.17 513.35&#10;  Q 662.90 524.91 652.77 530.77&#10;  C 650.51 532.07 648.50 533.74 646.69 534.66&#10;  Q 643.96 536.06 623.65 548.61&#10;  Q 611.51 556.11 572.28 578.31&#10;  Q 565.57 582.11 558.70 586.20&#10;  Q 553.02 589.59 544.35 594.34&#10;  C 517.54 609.05 507.64 614.83 488.56 623.76&#10;  C 482.72 626.49 476.28 630.43 470.35 634.03"/>
<path stroke="#01aafd" d="&#10;  M 470.35 634.03&#10;  L 469.46 611.75"/>
<path stroke="#0185e8" d="&#10;  M 823.39 485.54&#10;  Q 818.48 487.14 814.45 490.16&#10;  Q 808.42 494.70 808.16 494.86&#10;  C 802.95 498.19 798.22 501.69 792.67 504.67&#10;  Q 782.30 510.22 773.65 514.52&#10;  Q 766.26 518.19 754.71 524.56&#10;  Q 704.02 552.49 676.17 566.88&#10;  C 661.34 574.55 642.66 583.18 625.39 591.91&#10;  Q 596.09 606.73 578.35 614.55&#10;  Q 553.75 625.40 549.86 627.06&#10;  Q 534.28 633.71 511.26 643.39&#10;  Q 493.43 650.88 485.51 653.55&#10;  Q 485.48 653.56 459.76 663.69&#10;  Q 445.60 669.27 439.95 671.17&#10;  C 426.67 675.64 412.99 681.35 398.18 684.48&#10;  Q 396.96 684.74 394.18 686.35"/>
<path stroke="#0197f6" d="&#10;  M 388.95 681.26&#10;  Q 395.36 680.49 400.43 676.90&#10;  Q 407.50 671.89 417.89 664.74&#10;  C 424.70 660.05 430.90 656.82 437.20 652.84&#10;  C 447.17 646.54 459.46 640.64 470.35 634.03"/>
<path stroke="#69c1fd" d="&#10;  M 371.80 549.34&#10;  Q 368.13 550.36 365.01 551.71&#10;  Q 359.92 553.90 358.34 554.39&#10;  Q 341.81 559.49 324.51 560.83&#10;  Q 292.43 563.31 261.53 556.47&#10;  Q 260.24 556.19 255.19 554.57&#10;  Q 252.08 553.57 248.75 553.05"/>
<path stroke="#d7eaff" d="&#10;  M 231.81 429.93&#10;  Q 218.87 435.08 205.89 439.52&#10;  Q 201.97 440.86 201.89 440.88&#10;  Q 199.65 441.64 197.85 442.03&#10;  C 183.50 445.15 169.91 446.76 160.05 458.51&#10;  Q 153.76 465.99 147.51 480.01"/>
<path stroke="#d7eaff" d="&#10;  M 533.70 295.16&#10;  C 518.56 300.04 503.12 305.49 487.84 309.17&#10;  C 474.18 312.45 462.73 314.51 453.31 321.24&#10;  Q 446.37 326.22 441.48 334.14&#10;  C 434.95 344.70 430.44 352.55 422.64 362.24"/>
<path stroke="#024ca6" d="&#10;  M 584.76 848.00&#10;  Q 582.98 847.10 581.74 847.33&#10;  Q 548.78 853.47 518.43 841.03&#10;  C 512.15 838.45 504.81 833.79 500.26 830.50&#10;  Q 498.29 829.07 497.41 827.54&#10;  A 0.95 0.95 0.0 0 0 496.07 827.21&#10;  Q 494.28 828.37 492.80 829.80&#10;  Q 481.70 840.57 472.26 851.76&#10;  Q 467.38 857.55 465.71 860.47&#10;  C 462.14 866.73 459.95 870.19 457.30 875.60&#10;  Q 453.87 882.60 450.21 889.61"/>
<path stroke="#0184e7" d="&#10;  M 319.33 770.44&#10;  Q 319.54 768.37 320.81 765.55&#10;  Q 330.71 743.60 342.91 726.15&#10;  Q 348.35 718.37 361.26 705.13"/>
<path stroke="#01aafd" d="&#10;  M 279.56 632.35&#10;  Q 260.92 636.25 247.95 635.81&#10;  Q 237.30 635.45 226.67 634.74&#10;  C 217.05 634.10 209.97 631.51 201.42 629.18"/>
</g>
<path fill="#ddefff" d="&#10;  M 215.52 235.19&#10;  Q 205.17 242.41 194.62 244.36&#10;  Q 181.79 246.73 173.52 248.73&#10;  Q 159.88 252.02 148.95 262.60&#10;  C 139.48 271.77 132.27 280.67 127.40 292.92&#10;  Q 123.48 302.79 119.74 312.84&#10;  Q 77.14 284.16 49.13 241.37&#10;  Q 46.84 237.87 41.08 228.05&#10;  C 31.75 212.15 24.74 195.66 19.50 177.69&#10;  C 11.79 151.29 10.67 124.52 14.81 97.26&#10;  Q 16.39 86.89 19.32 77.82&#10;  Q 20.33 74.68 22.10 72.20&#10;  A 0.98 0.97 -62.1 0 1 23.21 71.85&#10;  C 24.59 72.33 26.23 73.34 27.48 74.35&#10;  C 34.88 80.31 44.42 89.05 53.99 97.08&#10;  Q 65.28 106.56 97.30 133.94&#10;  Q 118.00 151.64 125.36 158.03&#10;  Q 138.12 169.11 153.46 182.10&#10;  Q 184.63 208.50 215.52 235.19&#10;  Z"/>
<path fill="#01b5ff" d="&#10;  M 970.64 291.46&#10;  L 964.68 293.55&#10;  A 2.79 2.69 15.0 0 0 963.83 294.02&#10;  Q 962.55 295.02 961.13 296.38&#10;  Q 951.86 305.28 942.30 314.97&#10;  C 941.01 316.28 939.30 317.50 937.86 318.87&#10;  C 926.41 329.70 914.97 339.80 903.88 349.64&#10;  C 893.56 358.80 883.53 366.67 873.96 375.22&#10;  Q 867.03 381.41 857.74 388.44&#10;  Q 840.42 401.54 826.62 412.43&#10;  C 820.23 417.47 811.47 423.49 805.57 428.08&#10;  Q 790.39 439.86 788.29 441.29&#10;  C 771.87 452.47 757.36 463.06 739.40 474.97&#10;  C 728.60 482.14 710.87 494.40 696.73 503.45&#10;  Q 688.66 508.62 681.17 513.35&#10;  Q 662.90 524.91 652.77 530.77&#10;  C 650.51 532.07 648.50 533.74 646.69 534.66&#10;  Q 643.96 536.06 623.65 548.61&#10;  Q 611.51 556.11 572.28 578.31&#10;  Q 565.57 582.11 558.70 586.20&#10;  Q 553.02 589.59 544.35 594.34&#10;  C 517.54 609.05 507.64 614.83 488.56 623.76&#10;  C 482.72 626.49 476.28 630.43 470.35 634.03&#10;  L 469.46 611.75&#10;  Q 477.77 604.35 486.29 596.81&#10;  Q 490.32 593.24 493.64 590.67&#10;  C 497.01 588.07 499.52 585.41 503.24 582.24&#10;  Q 528.28 560.85 532.46 556.95&#10;  Q 543.53 546.62 547.00 543.74&#10;  Q 581.68 514.87 616.10 484.86&#10;  Q 638.60 465.24 662.24 443.74&#10;  C 668.78 437.78 679.81 429.20 687.98 421.78&#10;  C 696.21 414.31 704.01 408.10 712.01 400.72&#10;  Q 721.73 391.74 732.10 382.35&#10;  C 735.91 378.90 742.04 372.67 746.87 368.47&#10;  Q 770.79 347.64 794.43 326.09&#10;  Q 798.89 322.03 801.55 319.90&#10;  C 804.89 317.25 807.40 314.55 810.92 311.48&#10;  Q 826.65 297.76 845.58 280.52&#10;  C 853.31 273.47 860.74 265.42 867.66 259.49&#10;  Q 871.56 256.14 872.69 255.19&#10;  Q 879.52 249.41 918.36 214.10&#10;  C 922.36 210.47 928.39 205.76 933.18 201.26&#10;  Q 946.67 188.64 955.06 181.57&#10;  Q 961.55 176.10 965.70 172.16&#10;  C 971.84 166.34 976.27 163.09 980.76 158.39&#10;  Q 984.19 154.79 988.38 153.55&#10;  A 1.23 1.22 67.7 0 1 989.80 154.15&#10;  Q 991.19 156.75 991.61 160.11&#10;  Q 993.78 177.34 992.70 193.75&#10;  C 992.21 201.04 991.27 212.39 989.97 221.28&#10;  Q 984.70 257.51 970.64 291.46&#10;  Z"/>
<path fill="#ddefff" d="&#10;  M 533.70 295.16&#10;  C 518.56 300.04 503.12 305.49 487.84 309.17&#10;  C 474.18 312.45 462.73 314.51 453.31 321.24&#10;  Q 446.37 326.22 441.48 334.14&#10;  C 434.95 344.70 430.44 352.55 422.64 362.24&#10;  Q 412.24 353.64 394.22 338.28&#10;  Q 382.75 328.51 366.60 315.18&#10;  C 350.31 301.75 334.16 287.64 320.50 276.09&#10;  Q 306.08 263.91 294.96 253.74&#10;  Q 289.19 248.47 283.69 243.79&#10;  C 274.87 236.29 271.19 233.72 265.57 227.61&#10;  A 2.23 2.23 0.0 0 1 265.22 225.09&#10;  Q 266.49 222.58 268.88 220.64&#10;  Q 285.50 207.15 303.56 197.53&#10;  Q 327.42 184.83 352.27 184.54&#10;  Q 390.84 184.09 422.23 203.89&#10;  Q 433.99 211.30 444.16 219.83&#10;  Q 455.45 229.29 462.48 235.29&#10;  Q 497.90 265.52 533.70 295.16&#10;  Z"/>
<path fill="#ddefff" d="&#10;  M 215.52 235.19&#10;  Q 242.43 258.62 269.77 281.49&#10;  C 283.37 292.88 294.31 302.43 306.74 312.69&#10;  C 317.85 321.87 334.76 336.50 348.97 348.15&#10;  C 342.13 352.96 334.88 357.26 326.58 357.92&#10;  Q 322.67 358.23 316.11 357.17&#10;  Q 309.29 356.07 305.75 355.31&#10;  Q 282.36 350.31 267.29 368.17&#10;  Q 258.43 378.67 257.63 379.55&#10;  C 251.34 386.50 244.94 388.97 235.70 389.76&#10;  Q 219.63 377.68 214.20 374.06&#10;  Q 175.15 347.98 135.18 323.33&#10;  Q 130.12 320.21 119.74 312.84&#10;  Q 123.48 302.79 127.40 292.92&#10;  C 132.27 280.67 139.48 271.77 148.95 262.60&#10;  Q 159.88 252.02 173.52 248.73&#10;  Q 181.79 246.73 194.62 244.36&#10;  Q 205.17 242.41 215.52 235.19&#10;  Z"/>
<path fill="#0190f1" d="&#10;  M 970.64 291.46&#10;  Q 964.85 309.31 963.15 313.86&#10;  Q 960.57 320.75 953.19 336.07&#10;  C 947.19 348.54 937.86 362.29 931.92 373.06&#10;  Q 927.87 380.41 922.92 386.58&#10;  C 917.89 392.85 908.66 405.17 901.24 413.38&#10;  Q 885.00 431.34 879.03 437.29&#10;  Q 878.18 438.13 864.66 450.87&#10;  C 856.09 458.94 847.24 464.67 838.39 472.51&#10;  Q 830.93 479.12 823.39 485.54&#10;  Q 818.48 487.14 814.45 490.16&#10;  Q 808.42 494.70 808.16 494.86&#10;  C 802.95 498.19 798.22 501.69 792.67 504.67&#10;  Q 782.30 510.22 773.65 514.52&#10;  Q 766.26 518.19 754.71 524.56&#10;  Q 704.02 552.49 676.17 566.88&#10;  C 661.34 574.55 642.66 583.18 625.39 591.91&#10;  Q 596.09 606.73 578.35 614.55&#10;  Q 553.75 625.40 549.86 627.06&#10;  Q 534.28 633.71 511.26 643.39&#10;  Q 493.43 650.88 485.51 653.55&#10;  Q 485.48 653.56 459.76 663.69&#10;  Q 445.60 669.27 439.95 671.17&#10;  C 426.67 675.64 412.99 681.35 398.18 684.48&#10;  Q 396.96 684.74 394.18 686.35&#10;  L 388.95 681.26&#10;  Q 395.36 680.49 400.43 676.90&#10;  Q 407.50 671.89 417.89 664.74&#10;  C 424.70 660.05 430.90 656.82 437.20 652.84&#10;  C 447.17 646.54 459.46 640.64 470.35 634.03&#10;  C 476.28 630.43 482.72 626.49 488.56 623.76&#10;  C 507.64 614.83 517.54 609.05 544.35 594.34&#10;  Q 553.02 589.59 558.70 586.20&#10;  Q 565.57 582.11 572.28 578.31&#10;  Q 611.51 556.11 623.65 548.61&#10;  Q 643.96 536.06 646.69 534.66&#10;  C 648.50 533.74 650.51 532.07 652.77 530.77&#10;  Q 662.90 524.91 681.17 513.35&#10;  Q 688.66 508.62 696.73 503.45&#10;  C 710.87 494.40 728.60 482.14 739.40 474.97&#10;  C 757.36 463.06 771.87 452.47 788.29 441.29&#10;  Q 790.39 439.86 805.57 428.08&#10;  C 811.47 423.49 820.23 417.47 826.62 412.43&#10;  Q 840.42 401.54 857.74 388.44&#10;  Q 867.03 381.41 873.96 375.22&#10;  C 883.53 366.67 893.56 358.80 903.88 349.64&#10;  C 914.97 339.80 926.41 329.70 937.86 318.87&#10;  C 939.30 317.50 941.01 316.28 942.30 314.97&#10;  Q 951.86 305.28 961.13 296.38&#10;  Q 962.55 295.02 963.83 294.02&#10;  A 2.79 2.69 15.0 0 1 964.68 293.55&#10;  L 970.64 291.46&#10;  Z"/>
<path fill="#ddefff" d="&#10;  M 533.70 295.16&#10;  Q 579.87 334.00 626.06 372.67&#10;  Q 629.96 375.94 634.37 380.95&#10;  A 0.77 0.77 0.0 0 1 634.39 381.95&#10;  C 632.34 384.44 628.57 388.25 625.65 390.76&#10;  Q 615.68 399.31 600.47 412.81&#10;  C 587.75 424.11 577.14 434.54 564.58 445.57&#10;  Q 560.32 449.31 557.03 452.54&#10;  C 553.18 456.32 546.95 463.32 543.78 462.35&#10;  Q 542.48 461.95 541.52 461.24&#10;  C 537.57 458.30 533.58 455.44 530.01 452.41&#10;  Q 495.92 423.47 488.81 417.70&#10;  Q 480.85 411.25 473.14 404.53&#10;  Q 466.37 398.65 457.53 391.31&#10;  Q 440.07 376.81 422.64 362.24&#10;  C 430.44 352.55 434.95 344.70 441.48 334.14&#10;  Q 446.37 326.22 453.31 321.24&#10;  C 462.73 314.51 474.18 312.45 487.84 309.17&#10;  C 503.12 305.49 518.56 300.04 533.70 295.16&#10;  Z"/>
<path fill="#ddefff" d="&#10;  M 231.81 429.93&#10;  Q 218.87 435.08 205.89 439.52&#10;  Q 201.97 440.86 201.89 440.88&#10;  Q 199.65 441.64 197.85 442.03&#10;  C 183.50 445.15 169.91 446.76 160.05 458.51&#10;  Q 153.76 465.99 147.51 480.01&#10;  Q 116.20 448.81 95.33 409.92&#10;  Q 84.68 390.07 79.28 371.28&#10;  Q 74.32 354.01 73.30 335.49&#10;  Q 72.81 326.58 73.62 320.01&#10;  A 1.38 1.38 0.0 0 1 75.48 318.88&#10;  C 76.93 319.43 78.42 320.16 79.84 321.21&#10;  Q 93.63 331.42 103.96 338.78&#10;  Q 113.09 345.28 164.01 379.25&#10;  C 186.64 394.33 209.78 411.38 231.81 429.93&#10;  Z"/>
<path fill="#ddefff" d="&#10;  M 348.97 348.15&#10;  Q 359.92 357.43 370.80 366.71&#10;  Q 383.63 377.63 398.50 390.01&#10;  C 432.74 418.50 469.79 450.24 495.15 472.87&#10;  Q 515.06 490.63 521.93 496.31&#10;  Q 523.34 497.48 525.48 500.32&#10;  A 0.68 0.67 45.4 0 1 525.48 501.15&#10;  Q 522.89 504.49 520.44 506.68&#10;  Q 502.56 522.60 459.50 562.00&#10;  Q 456.20 565.02 453.07 566.97&#10;  A 2.39 2.31 25.1 0 1 452.11 567.30&#10;  C 448.74 567.70 444.53 563.68 442.06 561.49&#10;  C 436.47 556.54 429.79 550.34 423.12 544.74&#10;  Q 406.48 530.75 401.50 526.53&#10;  Q 360.55 491.83 322.89 459.62&#10;  Q 289.48 431.03 254.71 404.09&#10;  Q 245.38 396.85 235.70 389.76&#10;  C 244.94 388.97 251.34 386.50 257.63 379.55&#10;  Q 258.43 378.67 267.29 368.17&#10;  Q 282.36 350.31 305.75 355.31&#10;  Q 309.29 356.07 316.11 357.17&#10;  Q 322.67 358.23 326.58 357.92&#10;  C 334.88 357.26 342.13 352.96 348.97 348.15&#10;  Z"/>
<path fill="#ddefff" d="&#10;  M 371.80 549.34&#10;  Q 368.13 550.36 365.01 551.71&#10;  Q 359.92 553.90 358.34 554.39&#10;  Q 341.81 559.49 324.51 560.83&#10;  Q 292.43 563.31 261.53 556.47&#10;  Q 260.24 556.19 255.19 554.57&#10;  Q 252.08 553.57 248.75 553.05&#10;  Q 247.35 552.58 245.63 551.50&#10;  Q 243.82 550.36 242.59 549.80&#10;  Q 229.25 543.71 217.73 536.75&#10;  Q 178.94 513.34 147.51 480.01&#10;  Q 153.76 465.99 160.05 458.51&#10;  C 169.91 446.76 183.50 445.15 197.85 442.03&#10;  Q 199.65 441.64 201.89 440.88&#10;  Q 201.97 440.86 205.89 439.52&#10;  Q 218.87 435.08 231.81 429.93&#10;  L 371.80 549.34&#10;  Z"/>
<path fill="#0179df" d="&#10;  M 823.39 485.54&#10;  Q 816.50 492.21 809.19 498.38&#10;  Q 800.24 505.94 797.32 508.65&#10;  C 791.99 513.57 786.73 517.53 781.60 522.52&#10;  Q 764.53 539.11 746.69 554.70&#10;  Q 734.35 565.48 725.65 573.17&#10;  Q 714.92 582.67 704.58 591.60&#10;  Q 694.04 600.71 683.76 610.01&#10;  Q 676.76 616.34 676.28 616.78&#10;  Q 655.73 635.67 632.74 655.52&#10;  Q 621.45 665.26 609.94 676.19&#10;  Q 592.14 693.08 573.52 709.03&#10;  C 569.47 712.50 565.35 717.22 561.08 720.92&#10;  Q 531.49 746.63 504.07 773.13&#10;  C 500.34 776.74 497.62 778.47 493.26 775.12&#10;  C 489.76 772.44 486.53 768.91 482.78 765.51&#10;  Q 443.58 729.92 404.02 694.73&#10;  Q 402.06 692.99 394.18 686.35&#10;  Q 396.96 684.74 398.18 684.48&#10;  C 412.99 681.35 426.67 675.64 439.95 671.17&#10;  Q 445.60 669.27 459.76 663.69&#10;  Q 485.48 653.56 485.51 653.55&#10;  Q 493.43 650.88 511.26 643.39&#10;  Q 534.28 633.71 549.86 627.06&#10;  Q 553.75 625.40 578.35 614.55&#10;  Q 596.09 606.73 625.39 591.91&#10;  C 642.66 583.18 661.34 574.55 676.17 566.88&#10;  Q 704.02 552.49 754.71 524.56&#10;  Q 766.26 518.19 773.65 514.52&#10;  Q 782.30 510.22 792.67 504.67&#10;  C 798.22 501.69 802.95 498.19 808.16 494.86&#10;  Q 808.42 494.70 814.45 490.16&#10;  Q 818.48 487.14 823.39 485.54&#10;  Z"/>
<path fill="#016ad3" d="&#10;  M 584.76 848.00&#10;  Q 582.98 847.10 581.74 847.33&#10;  Q 548.78 853.47 518.43 841.03&#10;  C 512.15 838.45 504.81 833.79 500.26 830.50&#10;  Q 498.29 829.07 497.41 827.54&#10;  A 0.95 0.95 0.0 0 0 496.07 827.21&#10;  Q 494.28 828.37 492.80 829.80&#10;  Q 481.70 840.57 472.26 851.76&#10;  Q 467.38 857.55 465.71 860.47&#10;  C 462.14 866.73 459.95 870.19 457.30 875.60&#10;  Q 453.87 882.60 450.21 889.61&#10;  Q 441.83 883.21 434.11 876.14&#10;  Q 404.08 848.60 381.09 827.73&#10;  C 376.01 823.11 369.98 816.89 364.56 812.03&#10;  C 353.21 801.87 343.20 792.07 331.35 781.91&#10;  Q 324.85 776.33 319.33 770.44&#10;  Q 319.54 768.37 320.81 765.55&#10;  Q 330.71 743.60 342.91 726.15&#10;  Q 348.35 718.37 361.26 705.13&#10;  C 372.88 715.37 384.76 726.15 396.06 735.82&#10;  Q 423.60 759.35 450.40 783.37&#10;  Q 464.06 795.60 471.16 801.85&#10;  Q 486.24 815.10 493.09 820.66&#10;  C 497.49 824.22 502.26 821.18 505.81 818.30&#10;  Q 512.62 812.78 520.74 805.73&#10;  Q 551.63 778.89 573.35 758.84&#10;  C 587.37 745.91 603.00 732.50 619.04 717.63&#10;  C 623.33 713.65 627.38 710.32 633.14 705.37&#10;  C 642.91 696.97 658.61 683.13 671.00 671.58&#10;  C 677.04 665.95 682.97 661.20 688.78 655.58&#10;  C 698.11 646.57 713.24 634.36 722.67 625.40&#10;  Q 725.65 622.58 749.19 601.78&#10;  Q 755.77 595.97 775.57 577.99&#10;  Q 796.59 558.90 822.91 535.91&#10;  Q 826.98 532.36 833.46 528.71&#10;  A 0.40 0.40 0.0 0 1 834.05 529.00&#10;  C 835.38 538.32 833.50 543.79 831.17 555.99&#10;  Q 829.58 564.29 827.67 571.28&#10;  Q 821.94 592.17 813.91 611.94&#10;  C 810.62 620.02 806.00 627.76 802.19 635.08&#10;  C 796.75 645.54 787.89 656.98 781.30 665.55&#10;  Q 776.17 672.23 766.08 681.59&#10;  Q 742.25 703.70 740.45 705.46&#10;  Q 734.49 711.30 729.42 715.75&#10;  C 724.88 719.73 720.08 725.07 716.22 728.22&#10;  C 712.53 731.25 707.12 736.68 703.83 739.50&#10;  Q 691.04 750.49 681.89 759.21&#10;  C 679.58 761.40 676.47 763.63 673.96 765.96&#10;  Q 651.02 787.30 628.53 807.27&#10;  Q 621.66 813.37 609.83 824.75&#10;  C 601.98 832.30 593.11 840.21 584.76 848.00&#10;  Z"/>
<path fill="#019efb" d="&#10;  M 469.46 611.75&#10;  L 470.35 634.03&#10;  C 459.46 640.64 447.17 646.54 437.20 652.84&#10;  C 430.90 656.82 424.70 660.05 417.89 664.74&#10;  Q 407.50 671.89 400.43 676.90&#10;  Q 395.36 680.49 388.95 681.26&#10;  Q 376.89 670.18 364.38 659.37&#10;  Q 360.30 655.85 342.67 639.24&#10;  Q 324.25 621.87 319.43 617.79&#10;  Q 270.14 576.01 263.56 568.96&#10;  Q 262.70 568.05 258.98 565.06&#10;  Q 255.06 561.91 252.44 557.53&#10;  Q 251.91 556.65 250.56 555.21&#10;  Q 249.72 554.31 248.75 553.05&#10;  Q 252.08 553.57 255.19 554.57&#10;  Q 260.24 556.19 261.53 556.47&#10;  Q 292.43 563.31 324.51 560.83&#10;  Q 341.81 559.49 358.34 554.39&#10;  Q 359.92 553.90 365.01 551.71&#10;  Q 368.13 550.36 371.80 549.34&#10;  Q 382.14 558.04 393.71 567.55&#10;  C 398.30 571.33 405.44 578.83 411.34 583.17&#10;  C 414.02 585.14 418.37 588.25 421.72 591.48&#10;  Q 430.50 599.98 441.14 608.46&#10;  C 443.68 610.48 446.14 613.69 448.27 615.20&#10;  Q 452.77 618.40 456.79 618.87&#10;  C 460.90 619.35 466.63 614.64 469.46 611.75&#10;  Z"/>
<path fill="#01b5ff" d="&#10;  M 279.56 632.35&#10;  Q 260.92 636.25 247.95 635.81&#10;  Q 237.30 635.45 226.67 634.74&#10;  C 217.05 634.10 209.97 631.51 201.42 629.18&#10;  Q 194.40 616.83 192.11 606.62&#10;  Q 188.97 592.63 188.69 591.50&#10;  C 186.50 582.71 185.85 575.95 185.25 567.00&#10;  C 184.96 562.78 184.81 555.72 191.31 557.42&#10;  Q 194.64 558.28 196.75 560.23&#10;  C 204.07 566.95 213.93 573.45 221.07 580.22&#10;  Q 229.16 587.87 235.78 593.71&#10;  C 240.19 597.60 244.09 600.50 248.17 604.34&#10;  Q 263.50 618.75 279.56 632.35&#10;  Z"/>
<path fill="#019efb" d="&#10;  M 279.56 632.35&#10;  L 361.26 705.13&#10;  Q 348.35 718.37 342.91 726.15&#10;  Q 330.71 743.60 320.81 765.55&#10;  Q 319.54 768.37 319.33 770.44&#10;  C 306.74 759.47 294.91 747.54 282.74 736.51&#10;  Q 279.59 733.65 261.75 715.80&#10;  C 259.94 713.98 257.43 711.99 255.59 709.96&#10;  Q 247.99 701.58 240.27 691.18&#10;  C 238.31 688.55 235.76 685.85 234.02 683.74&#10;  Q 232.14 681.48 221.10 665.32&#10;  Q 219.40 662.83 215.40 655.31&#10;  Q 213.37 651.49 209.67 645.33&#10;  Q 205.97 639.18 201.42 629.18&#10;  C 209.97 631.51 217.05 634.10 226.67 634.74&#10;  Q 237.30 635.45 247.95 635.81&#10;  Q 260.92 636.25 279.56 632.35&#10;  Z"/>
<path fill="#022e78" d="&#10;  M 584.76 848.00&#10;  C 582.36 850.30 579.39 852.57 577.33 854.59&#10;  C 566.20 865.52 556.58 873.61 544.58 885.18&#10;  Q 536.55 892.95 518.96 908.71&#10;  Q 514.47 912.74 509.93 917.17&#10;  C 503.97 922.98 501.04 926.89 496.29 928.86&#10;  A 1.71 1.70 51.4 0 1 494.65 928.67&#10;  C 491.03 926.09 489.30 925.05 486.24 922.28&#10;  Q 473.14 910.42 459.03 898.22&#10;  Q 455.84 895.46 450.21 889.61&#10;  Q 453.87 882.60 457.30 875.60&#10;  C 459.95 870.19 462.14 866.73 465.71 860.47&#10;  Q 467.38 857.55 472.26 851.76&#10;  Q 481.70 840.57 492.80 829.80&#10;  Q 494.28 828.37 496.07 827.21&#10;  A 0.95 0.95 0.0 0 1 497.41 827.54&#10;  Q 498.29 829.07 500.26 830.50&#10;  C 504.81 833.79 512.15 838.45 518.43 841.03&#10;  Q 548.78 853.47 581.74 847.33&#10;  Q 582.98 847.10 584.76 848.00&#10;  Z"/>
</svg>